<mxfile host="app.diagrams.net" agent="Mozilla/5.0 (Macintosh; Intel Mac OS X 10_15_7) AppleWebKit/537.36 (KHTML, like Gecko) Chrome/135.0.0.0 Safari/537.36" version="26.1.3">
  <diagram name="Page-1" id="ye45J8PKRT6hVtRGAUmR">
    <mxGraphModel dx="1262" dy="1927" grid="0" gridSize="10" guides="1" tooltips="1" connect="1" arrows="1" fold="1" page="0" pageScale="1" pageWidth="827" pageHeight="1169" math="0" shadow="0">
      <root>
        <mxCell id="0" />
        <mxCell id="1" parent="0" />
        <mxCell id="KVps6kfmWuWMTPh3L6cP-2" value="Course Aggregate" style="ellipse;whiteSpace=wrap;html=1;sketch=1;curveFitting=1;jiggle=2;dashed=1;dashPattern=8 8;labelPosition=center;verticalLabelPosition=top;align=center;verticalAlign=bottom;spacing=2;fillColor=#D4E1F5;strokeColor=#36393d;" vertex="1" parent="1">
          <mxGeometry x="-143" y="-218" width="417" height="329" as="geometry" />
        </mxCell>
        <mxCell id="KVps6kfmWuWMTPh3L6cP-4" style="edgeStyle=none;curved=1;rounded=0;orthogonalLoop=1;jettySize=auto;html=1;entryX=0.25;entryY=0;entryDx=0;entryDy=0;fontSize=12;startSize=8;endSize=8;sketch=1;curveFitting=1;jiggle=2;" edge="1" parent="1" source="KVps6kfmWuWMTPh3L6cP-1" target="KVps6kfmWuWMTPh3L6cP-3">
          <mxGeometry relative="1" as="geometry">
            <Array as="points">
              <mxPoint x="86" y="-50" />
            </Array>
          </mxGeometry>
        </mxCell>
        <mxCell id="KVps6kfmWuWMTPh3L6cP-9" value="*" style="edgeLabel;html=1;align=center;verticalAlign=middle;resizable=0;points=[];fontSize=12;" vertex="1" connectable="0" parent="KVps6kfmWuWMTPh3L6cP-4">
          <mxGeometry x="0.6881" y="3" relative="1" as="geometry">
            <mxPoint x="4" y="-4" as="offset" />
          </mxGeometry>
        </mxCell>
        <mxCell id="KVps6kfmWuWMTPh3L6cP-1" value="Course&lt;div&gt;(aggregate root)&lt;/div&gt;" style="rounded=1;whiteSpace=wrap;html=1;arcSize=5;fillColor=#dae8fc;strokeColor=#6c8ebf;" vertex="1" parent="1">
          <mxGeometry x="-41" y="-160" width="120" height="61" as="geometry" />
        </mxCell>
        <mxCell id="KVps6kfmWuWMTPh3L6cP-16" style="edgeStyle=none;curved=1;rounded=0;orthogonalLoop=1;jettySize=auto;html=1;exitX=1;exitY=0.25;exitDx=0;exitDy=0;entryX=0;entryY=0.5;entryDx=0;entryDy=0;fontSize=12;startSize=8;endSize=8;sketch=1;curveFitting=1;jiggle=2;dashed=1;dashPattern=1 4;" edge="1" parent="1" source="KVps6kfmWuWMTPh3L6cP-3" target="KVps6kfmWuWMTPh3L6cP-14">
          <mxGeometry relative="1" as="geometry">
            <Array as="points">
              <mxPoint x="283" y="-105" />
            </Array>
          </mxGeometry>
        </mxCell>
        <mxCell id="KVps6kfmWuWMTPh3L6cP-3" value="StudentId" style="rounded=1;whiteSpace=wrap;html=1;arcSize=5;fillColor=#b0e3e6;strokeColor=#0e8088;" vertex="1" parent="1">
          <mxGeometry x="73" y="-16" width="120" height="60" as="geometry" />
        </mxCell>
        <mxCell id="KVps6kfmWuWMTPh3L6cP-11" value="Student Aggregate" style="ellipse;whiteSpace=wrap;html=1;sketch=1;curveFitting=1;jiggle=2;dashed=1;dashPattern=8 8;labelPosition=center;verticalLabelPosition=top;align=center;verticalAlign=bottom;spacing=2;fillColor=#D4E1F5;strokeColor=#36393d;" vertex="1" parent="1">
          <mxGeometry x="320.5" y="-226" width="297" height="202" as="geometry" />
        </mxCell>
        <mxCell id="KVps6kfmWuWMTPh3L6cP-14" value="Student&lt;div&gt;(aggregate root)&lt;/div&gt;" style="rounded=1;whiteSpace=wrap;html=1;arcSize=5;fillColor=#dae8fc;strokeColor=#6c8ebf;" vertex="1" parent="1">
          <mxGeometry x="409" y="-163" width="120" height="61" as="geometry" />
        </mxCell>
      </root>
    </mxGraphModel>
  </diagram>
</mxfile>
